# xmcd CD database file
#
# Track frame offsets:
#	150
#	18442
#	39420
#	63967
#	95917
#	112660
#	133985
#	155752
#	177390
#	204130
#
# Disc length: 2984 seconds
#
# Revision: 2
# Processed by: cddbd v1.5.1PL0 Copyright (c) Steve Scherf et al.
# Submitted via: CDex 1.50Beta7
#
DISCID=830ba60a
DTITLE=Ái Vân - Thuyen Hoa
DYEAR=1996
DGENRE=Folk
TTITLE0=Chan que
TTITLE1=Ly chieu chieu
TTITLE2=Thuyen hoa
TTITLE3=Ðêm Vinh Qui
TTITLE4=Kiep sau
TTITLE5=Ly ngua o
TTITLE6=Ve tham co hang che
TTITLE7=Ru con Nam bo
TTITLE8=Ngau hung Ly qua cau
TTITLE9=Tuoi may
EXTD=YEAR: 1996
EXTT0=
EXTT1=
EXTT2=
EXTT3=
EXTT4=
EXTT5=
EXTT6=
EXTT7=
EXTT8=
EXTT9=
PLAYORDER=
